<?xml version="1.0" encoding="utf-8" standalone="no"?>
<!DOCTYPE svg PUBLIC "-//W3C//DTD SVG 1.1//EN"
  "http://www.w3.org/Graphics/SVG/1.1/DTD/svg11.dtd">
<svg xmlns:xlink="http://www.w3.org/1999/xlink" width="561.368347pt" height="285.058219pt" viewBox="0 0 561.368347 285.058219" xmlns="http://www.w3.org/2000/svg" version="1.1">
 <metadata>
  <rdf:RDF xmlns:dc="http://purl.org/dc/elements/1.1/" xmlns:cc="http://creativecommons.org/ns#" xmlns:rdf="http://www.w3.org/1999/02/22-rdf-syntax-ns#">
   <cc:Work>
    <dc:type rdf:resource="http://purl.org/dc/dcmitype/StillImage"/>
    <dc:date>2026-04-27T11:39:38.278199</dc:date>
    <dc:format>image/svg+xml</dc:format>
    <dc:creator>
     <cc:Agent>
      <dc:title>Matplotlib v3.10.8, https://matplotlib.org/</dc:title>
     </cc:Agent>
    </dc:creator>
   </cc:Work>
  </rdf:RDF>
 </metadata>
 <defs>
  <style type="text/css">*{stroke-linejoin: round; stroke-linecap: butt}</style>
 </defs>
 <g id="figure_1">
  <g id="patch_1">
   <path d="M 0 285.058219 
L 561.368347 285.058219 
L 561.368347 0 
L 0 0 
z
" style="fill: #ffffff"/>
  </g>
  <g id="axes_1">
   <g id="patch_2">
    <path d="M 42.34125 248.941969 
L 555.608347 248.941969 
L 555.608347 21.637969 
L 42.34125 21.637969 
z
" style="fill: #ffffff"/>
   </g>
   <g id="patch_3">
    <path d="M 159.659444 204.947646 
C 179.105161 204.947646 197.757051 197.221781 211.50725 183.471582 
C 225.257449 169.721383 232.983315 151.069493 232.983315 131.623775 
C 232.983315 112.178057 225.257449 93.526168 211.50725 79.775969 
C 197.757051 66.02577 179.105161 58.299904 159.659444 58.299904 
C 140.213726 58.299904 121.561836 66.02577 107.811637 79.775969 
C 94.061438 93.526168 86.335573 112.178057 86.335573 131.623775 
C 86.335573 151.069493 94.061438 169.721383 107.811637 183.471582 
C 121.561836 197.221781 140.213726 204.947646 159.659444 204.947646 
z
" clip-path="url(#pc082d05383)" style="fill: #dd6b20; opacity: 0.08; stroke: #dd6b20; stroke-width: 1.8; stroke-linejoin: miter"/>
   </g>
   <g id="matplotlib.axis_1">
    <g id="xtick_1">
     <g id="line2d_1">
      <path d="M 86.335573 248.941969 
L 86.335573 21.637969 
" clip-path="url(#pc082d05383)" style="fill: none; stroke: #e5e7eb; stroke-width: 0.8; stroke-linecap: square"/>
     </g>
     <g id="line2d_2">
      <defs>
       <path id="mb058dc7a61" d="M 0 0 
L 0 3.5 
" style="stroke: #1f2937; stroke-width: 0.8"/>
      </defs>
      <g>
       <use xlink:href="#mb058dc7a61" x="86.335573" y="248.941969" style="fill: #1f2937; stroke: #1f2937; stroke-width: 0.8"/>
      </g>
     </g>
     <g id="text_1">
      <text style="font-size: 10px; font-family: 'DejaVu Sans'; text-anchor: middle; fill: #1f2937" x="86.335573" y="263.540406" transform="rotate(-0 86.335573 263.540406)">1</text>
     </g>
    </g>
    <g id="xtick_2">
     <g id="line2d_3">
      <path d="M 159.659444 248.941969 
L 159.659444 21.637969 
" clip-path="url(#pc082d05383)" style="fill: none; stroke: #e5e7eb; stroke-width: 0.8; stroke-linecap: square"/>
     </g>
     <g id="line2d_4">
      <g>
       <use xlink:href="#mb058dc7a61" x="159.659444" y="248.941969" style="fill: #1f2937; stroke: #1f2937; stroke-width: 0.8"/>
      </g>
     </g>
     <g id="text_2">
      <text style="font-size: 10px; font-family: 'DejaVu Sans'; text-anchor: middle; fill: #1f2937" x="159.659444" y="263.540406" transform="rotate(-0 159.659444 263.540406)">2</text>
     </g>
    </g>
    <g id="xtick_3">
     <g id="line2d_5">
      <path d="M 232.983315 248.941969 
L 232.983315 21.637969 
" clip-path="url(#pc082d05383)" style="fill: none; stroke: #e5e7eb; stroke-width: 0.8; stroke-linecap: square"/>
     </g>
     <g id="line2d_6">
      <g>
       <use xlink:href="#mb058dc7a61" x="232.983315" y="248.941969" style="fill: #1f2937; stroke: #1f2937; stroke-width: 0.8"/>
      </g>
     </g>
     <g id="text_3">
      <text style="font-size: 10px; font-family: 'DejaVu Sans'; text-anchor: middle; fill: #1f2937" x="232.983315" y="263.540406" transform="rotate(-0 232.983315 263.540406)">3</text>
     </g>
    </g>
    <g id="xtick_4">
     <g id="line2d_7">
      <path d="M 306.307185 248.941969 
L 306.307185 21.637969 
" clip-path="url(#pc082d05383)" style="fill: none; stroke: #e5e7eb; stroke-width: 0.8; stroke-linecap: square"/>
     </g>
     <g id="line2d_8">
      <g>
       <use xlink:href="#mb058dc7a61" x="306.307185" y="248.941969" style="fill: #1f2937; stroke: #1f2937; stroke-width: 0.8"/>
      </g>
     </g>
     <g id="text_4">
      <text style="font-size: 10px; font-family: 'DejaVu Sans'; text-anchor: middle; fill: #1f2937" x="306.307185" y="263.540406" transform="rotate(-0 306.307185 263.540406)">4</text>
     </g>
    </g>
    <g id="xtick_5">
     <g id="line2d_9">
      <path d="M 379.631056 248.941969 
L 379.631056 21.637969 
" clip-path="url(#pc082d05383)" style="fill: none; stroke: #e5e7eb; stroke-width: 0.8; stroke-linecap: square"/>
     </g>
     <g id="line2d_10">
      <g>
       <use xlink:href="#mb058dc7a61" x="379.631056" y="248.941969" style="fill: #1f2937; stroke: #1f2937; stroke-width: 0.8"/>
      </g>
     </g>
     <g id="text_5">
      <text style="font-size: 10px; font-family: 'DejaVu Sans'; text-anchor: middle; fill: #1f2937" x="379.631056" y="263.540406" transform="rotate(-0 379.631056 263.540406)">5</text>
     </g>
    </g>
    <g id="xtick_6">
     <g id="line2d_11">
      <path d="M 452.954927 248.941969 
L 452.954927 21.637969 
" clip-path="url(#pc082d05383)" style="fill: none; stroke: #e5e7eb; stroke-width: 0.8; stroke-linecap: square"/>
     </g>
     <g id="line2d_12">
      <g>
       <use xlink:href="#mb058dc7a61" x="452.954927" y="248.941969" style="fill: #1f2937; stroke: #1f2937; stroke-width: 0.8"/>
      </g>
     </g>
     <g id="text_6">
      <text style="font-size: 10px; font-family: 'DejaVu Sans'; text-anchor: middle; fill: #1f2937" x="452.954927" y="263.540406" transform="rotate(-0 452.954927 263.540406)">6</text>
     </g>
    </g>
    <g id="xtick_7">
     <g id="line2d_13">
      <path d="M 526.278798 248.941969 
L 526.278798 21.637969 
" clip-path="url(#pc082d05383)" style="fill: none; stroke: #e5e7eb; stroke-width: 0.8; stroke-linecap: square"/>
     </g>
     <g id="line2d_14">
      <g>
       <use xlink:href="#mb058dc7a61" x="526.278798" y="248.941969" style="fill: #1f2937; stroke: #1f2937; stroke-width: 0.8"/>
      </g>
     </g>
     <g id="text_7">
      <text style="font-size: 10px; font-family: 'DejaVu Sans'; text-anchor: middle; fill: #1f2937" x="526.278798" y="263.540406" transform="rotate(-0 526.278798 263.540406)">7</text>
     </g>
    </g>
    <g id="text_8">
     <!-- $x_1$ -->
     <g style="fill: #1f2937" transform="translate(293.624798 277.218531)">
      <text>
       <tspan x="0" y="-0.53125" style="font-style: oblique; font-size: 10px; font-family: 'DejaVu Sans'; fill: #1f2937">x</tspan>
       <tspan x="5.917969" y="1.109375" style="font-size: 7px; font-family: 'DejaVu Sans'; fill: #1f2937">1</tspan>
      </text>
     </g>
    </g>
   </g>
   <g id="matplotlib.axis_2">
    <g id="ytick_1">
     <g id="line2d_15">
      <path d="M 42.34125 241.609582 
L 555.608347 241.609582 
" clip-path="url(#pc082d05383)" style="fill: none; stroke: #e5e7eb; stroke-width: 0.8; stroke-linecap: square"/>
     </g>
     <g id="line2d_16">
      <defs>
       <path id="m63ae2440fd" d="M 0 0 
L -3.5 0 
" style="stroke: #1f2937; stroke-width: 0.8"/>
      </defs>
      <g>
       <use xlink:href="#m63ae2440fd" x="42.34125" y="241.609582" style="fill: #1f2937; stroke: #1f2937; stroke-width: 0.8"/>
      </g>
     </g>
     <g id="text_9">
      <text style="font-size: 10px; font-family: 'DejaVu Sans'; text-anchor: end; fill: #1f2937" x="35.34125" y="245.4088" transform="rotate(-0 35.34125 245.4088)">0.5</text>
     </g>
    </g>
    <g id="ytick_2">
     <g id="line2d_17">
      <path d="M 42.34125 204.947646 
L 555.608347 204.947646 
" clip-path="url(#pc082d05383)" style="fill: none; stroke: #e5e7eb; stroke-width: 0.8; stroke-linecap: square"/>
     </g>
     <g id="line2d_18">
      <g>
       <use xlink:href="#m63ae2440fd" x="42.34125" y="204.947646" style="fill: #1f2937; stroke: #1f2937; stroke-width: 0.8"/>
      </g>
     </g>
     <g id="text_10">
      <text style="font-size: 10px; font-family: 'DejaVu Sans'; text-anchor: end; fill: #1f2937" x="35.34125" y="208.746865" transform="rotate(-0 35.34125 208.746865)">1.0</text>
     </g>
    </g>
    <g id="ytick_3">
     <g id="line2d_19">
      <path d="M 42.34125 168.285711 
L 555.608347 168.285711 
" clip-path="url(#pc082d05383)" style="fill: none; stroke: #e5e7eb; stroke-width: 0.8; stroke-linecap: square"/>
     </g>
     <g id="line2d_20">
      <g>
       <use xlink:href="#m63ae2440fd" x="42.34125" y="168.285711" style="fill: #1f2937; stroke: #1f2937; stroke-width: 0.8"/>
      </g>
     </g>
     <g id="text_11">
      <text style="font-size: 10px; font-family: 'DejaVu Sans'; text-anchor: end; fill: #1f2937" x="35.34125" y="172.084929" transform="rotate(-0 35.34125 172.084929)">1.5</text>
     </g>
    </g>
    <g id="ytick_4">
     <g id="line2d_21">
      <path d="M 42.34125 131.623775 
L 555.608347 131.623775 
" clip-path="url(#pc082d05383)" style="fill: none; stroke: #e5e7eb; stroke-width: 0.8; stroke-linecap: square"/>
     </g>
     <g id="line2d_22">
      <g>
       <use xlink:href="#m63ae2440fd" x="42.34125" y="131.623775" style="fill: #1f2937; stroke: #1f2937; stroke-width: 0.8"/>
      </g>
     </g>
     <g id="text_12">
      <text style="font-size: 10px; font-family: 'DejaVu Sans'; text-anchor: end; fill: #1f2937" x="35.34125" y="135.422994" transform="rotate(-0 35.34125 135.422994)">2.0</text>
     </g>
    </g>
    <g id="ytick_5">
     <g id="line2d_23">
      <path d="M 42.34125 94.96184 
L 555.608347 94.96184 
" clip-path="url(#pc082d05383)" style="fill: none; stroke: #e5e7eb; stroke-width: 0.8; stroke-linecap: square"/>
     </g>
     <g id="line2d_24">
      <g>
       <use xlink:href="#m63ae2440fd" x="42.34125" y="94.96184" style="fill: #1f2937; stroke: #1f2937; stroke-width: 0.8"/>
      </g>
     </g>
     <g id="text_13">
      <text style="font-size: 10px; font-family: 'DejaVu Sans'; text-anchor: end; fill: #1f2937" x="35.34125" y="98.761058" transform="rotate(-0 35.34125 98.761058)">2.5</text>
     </g>
    </g>
    <g id="ytick_6">
     <g id="line2d_25">
      <path d="M 42.34125 58.299904 
L 555.608347 58.299904 
" clip-path="url(#pc082d05383)" style="fill: none; stroke: #e5e7eb; stroke-width: 0.8; stroke-linecap: square"/>
     </g>
     <g id="line2d_26">
      <g>
       <use xlink:href="#m63ae2440fd" x="42.34125" y="58.299904" style="fill: #1f2937; stroke: #1f2937; stroke-width: 0.8"/>
      </g>
     </g>
     <g id="text_14">
      <text style="font-size: 10px; font-family: 'DejaVu Sans'; text-anchor: end; fill: #1f2937" x="35.34125" y="62.099123" transform="rotate(-0 35.34125 62.099123)">3.0</text>
     </g>
    </g>
    <g id="ytick_7">
     <g id="line2d_27">
      <path d="M 42.34125 21.637969 
L 555.608347 21.637969 
" clip-path="url(#pc082d05383)" style="fill: none; stroke: #e5e7eb; stroke-width: 0.8; stroke-linecap: square"/>
     </g>
     <g id="line2d_28">
      <g>
       <use xlink:href="#m63ae2440fd" x="42.34125" y="21.637969" style="fill: #1f2937; stroke: #1f2937; stroke-width: 0.8"/>
      </g>
     </g>
     <g id="text_15">
      <text style="font-size: 10px; font-family: 'DejaVu Sans'; text-anchor: end; fill: #1f2937" x="35.34125" y="25.437188" transform="rotate(-0 35.34125 25.437188)">3.5</text>
     </g>
    </g>
    <g id="text_16">
     <!-- $x_2$ -->
     <g style="fill: #1f2937" transform="translate(13.358438 140.639969) rotate(-90)">
      <text>
       <tspan x="0" y="-0.53125" style="font-style: oblique; font-size: 10px; font-family: 'DejaVu Sans'; fill: #1f2937">x</tspan>
       <tspan x="5.917969" y="1.109375" style="font-size: 7px; font-family: 'DejaVu Sans'; fill: #1f2937">2</tspan>
      </text>
     </g>
    </g>
   </g>
   <g id="patch_4">
    <path d="M 42.34125 248.941969 
L 42.34125 21.637969 
" style="fill: none; stroke: #000000; stroke-width: 0.8; stroke-linejoin: miter; stroke-linecap: square"/>
   </g>
   <g id="patch_5">
    <path d="M 42.34125 248.941969 
L 555.608347 248.941969 
" style="fill: none; stroke: #000000; stroke-width: 0.8; stroke-linejoin: miter; stroke-linecap: square"/>
   </g>
   <g id="PathCollection_1">
    <defs>
     <path id="m866033b373" d="M 0 4.1833 
C 1.109424 4.1833 2.173559 3.742521 2.95804 2.95804 
C 3.742521 2.173559 4.1833 1.109424 4.1833 0 
C 4.1833 -1.109424 3.742521 -2.173559 2.95804 -2.95804 
C 2.173559 -3.742521 1.109424 -4.1833 0 -4.1833 
C -1.109424 -4.1833 -2.173559 -3.742521 -2.95804 -2.95804 
C -3.742521 -2.173559 -4.1833 -1.109424 -4.1833 0 
C -4.1833 1.109424 -3.742521 2.173559 -2.95804 2.95804 
C -2.173559 3.742521 -1.109424 4.1833 0 4.1833 
z
" style="stroke: #2b6cb0"/>
    </defs>
    <g clip-path="url(#pc082d05383)">
     <use xlink:href="#m866033b373" x="108.332734" y="175.618098" style="fill: #2b6cb0; stroke: #2b6cb0"/>
     <use xlink:href="#m866033b373" x="101.000347" y="94.96184" style="fill: #2b6cb0; stroke: #2b6cb0"/>
     <use xlink:href="#m866033b373" x="152.327056" y="197.615259" style="fill: #2b6cb0; stroke: #2b6cb0"/>
     <use xlink:href="#m866033b373" x="166.991831" y="65.632291" style="fill: #2b6cb0; stroke: #2b6cb0"/>
    </g>
   </g>
   <g id="text_17">
    <text style="font-size: 11px; font-family: 'DejaVu Sans'; text-anchor: start; fill: #dd6b20" x="146.461147" y="162.419801" transform="rotate(-0 146.461147 162.419801)">core</text>
   </g>
   <g id="text_18">
    <text style="font-size: 11px; font-family: 'DejaVu Sans'; text-anchor: start; fill: #2f855a" x="216.118824" y="113.292807" transform="rotate(-0 216.118824 113.292807)">border</text>
   </g>
   <g id="text_19">
    <text style="font-size: 11px; font-family: 'DejaVu Sans'; text-anchor: start; fill: #c53030" x="510.147547" y="186.616678" transform="rotate(-0 510.147547 186.616678)">noise</text>
   </g>
   <g id="text_20">
    <!-- $\varepsilon = 1.0$ -->
    <g style="fill: #1f2937" transform="translate(57.006024 58.299904)">
     <text>
      <tspan x="0" y="-0.828125" style="font-style: oblique; font-size: 11px; font-family: 'DejaVu Sans'; fill: #1f2937">ε</tspan>
      <tspan x="8.088867" y="-0.828125" style="font-size: 11px; font-family: 'DejaVu Sans'; fill: #1f2937">=</tspan>
      <tspan x="19.44873" y="-0.828125" style="font-size: 11px; font-family: 'DejaVu Sans'; fill: #1f2937">1</tspan>
      <tspan x="26.447266" y="-0.828125" style="font-size: 11px; font-family: 'DejaVu Sans'; fill: #1f2937">.</tspan>
      <tspan x="29.943848" y="-0.828125" style="font-size: 11px; font-family: 'DejaVu Sans'; fill: #1f2937">0</tspan>
     </text>
    </g>
   </g>
   <g id="text_21">
    <!-- $\mathrm{MinPts} = 5$ -->
    <g style="fill: #1f2937" transform="translate(155.99325 58.299904)">
     <text>
      <tspan x="0" y="-0.640625" style="font-size: 11px; font-family: 'DejaVu Sans'; fill: #1f2937">M</tspan>
      <tspan x="9.490723" y="-0.640625" style="font-size: 11px; font-family: 'DejaVu Sans'; fill: #1f2937">i</tspan>
      <tspan x="12.546875" y="-0.640625" style="font-size: 11px; font-family: 'DejaVu Sans'; fill: #1f2937">n</tspan>
      <tspan x="19.518555" y="-0.640625" style="font-size: 11px; font-family: 'DejaVu Sans'; fill: #1f2937">P</tspan>
      <tspan x="26.151855" y="-0.640625" style="font-size: 11px; font-family: 'DejaVu Sans'; fill: #1f2937">t</tspan>
      <tspan x="30.464844" y="-0.640625" style="font-size: 11px; font-family: 'DejaVu Sans'; fill: #1f2937">s</tspan>
      <tspan x="38.338867" y="-0.640625" style="font-size: 11px; font-family: 'DejaVu Sans'; fill: #1f2937">=</tspan>
      <tspan x="49.69873" y="-0.640625" style="font-size: 11px; font-family: 'DejaVu Sans'; fill: #1f2937">5</tspan>
     </text>
    </g>
   </g>
   <g id="text_22">
    <text style="font-size: 13px; font-family: 'DejaVu Sans'; text-anchor: middle; fill: #1f2937" x="298.974798" y="15.637969" transform="rotate(-0 298.974798 15.637969)">Core, border, and noise in one dataset</text>
   </g>
   <g id="PathCollection_2">
    <defs>
     <path id="m8389d1b020" d="M 0 6.123724 
C 1.624031 6.123724 3.181764 5.47849 4.330127 4.330127 
C 5.47849 3.181764 6.123724 1.624031 6.123724 0 
C 6.123724 -1.624031 5.47849 -3.181764 4.330127 -4.330127 
C 3.181764 -5.47849 1.624031 -6.123724 0 -6.123724 
C -1.624031 -6.123724 -3.181764 -5.47849 -4.330127 -4.330127 
C -5.47849 -3.181764 -6.123724 -1.624031 -6.123724 0 
C -6.123724 1.624031 -5.47849 3.181764 -4.330127 4.330127 
C -3.181764 5.47849 -1.624031 6.123724 0 6.123724 
z
" style="stroke: #ffffff; stroke-width: 1.2"/>
    </defs>
    <g clip-path="url(#pc082d05383)">
     <use xlink:href="#m8389d1b020" x="159.659444" y="131.623775" style="fill: #dd6b20; stroke: #ffffff; stroke-width: 1.2"/>
    </g>
   </g>
   <g id="PathCollection_3">
    <defs>
     <path id="m804c910994" d="M 0 5.700877 
C 1.51189 5.700877 2.962061 5.100197 4.031129 4.031129 
C 5.100197 2.962061 5.700877 1.51189 5.700877 0 
C 5.700877 -1.51189 5.100197 -2.962061 4.031129 -4.031129 
C 2.962061 -5.100197 1.51189 -5.700877 0 -5.700877 
C -1.51189 -5.700877 -2.962061 -5.100197 -4.031129 -4.031129 
C -5.100197 -2.962061 -5.700877 -1.51189 -5.700877 0 
C -5.700877 1.51189 -5.100197 2.962061 -4.031129 4.031129 
C -2.962061 5.100197 -1.51189 5.700877 0 5.700877 
z
" style="stroke: #ffffff; stroke-width: 1.1"/>
    </defs>
    <g clip-path="url(#pc082d05383)">
     <use xlink:href="#m804c910994" x="229.317121" y="131.623775" style="fill: #2f855a; stroke: #ffffff; stroke-width: 1.1"/>
    </g>
   </g>
   <g id="PathCollection_4">
    <defs>
     <path id="mc9f88b246e" d="M 0 5.477226 
C 1.452577 5.477226 2.845856 4.900111 3.872983 3.872983 
C 4.900111 2.845856 5.477226 1.452577 5.477226 0 
C 5.477226 -1.452577 4.900111 -2.845856 3.872983 -3.872983 
C 2.845856 -4.900111 1.452577 -5.477226 0 -5.477226 
C -1.452577 -5.477226 -2.845856 -4.900111 -3.872983 -3.872983 
C -4.900111 -2.845856 -5.477226 -1.452577 -5.477226 0 
C -5.477226 1.452577 -4.900111 2.845856 -3.872983 3.872983 
C -2.845856 4.900111 -1.452577 5.477226 0 5.477226 
z
" style="stroke: #ffffff; stroke-width: 1.1"/>
    </defs>
    <g clip-path="url(#pc082d05383)">
     <use xlink:href="#mc9f88b246e" x="518.946411" y="204.947646" style="fill: #c53030; stroke: #ffffff; stroke-width: 1.1"/>
    </g>
   </g>
  </g>
 </g>
 <defs>
  <clipPath id="pc082d05383">
   <rect x="42.34125" y="21.637969" width="513.267097" height="227.304"/>
  </clipPath>
 </defs>
</svg>
