<?xml version="1.0" encoding="utf-8" standalone="no"?>
<!DOCTYPE svg PUBLIC "-//W3C//DTD SVG 1.1//EN"
  "http://www.w3.org/Graphics/SVG/1.1/DTD/svg11.dtd">
<svg xmlns:xlink="http://www.w3.org/1999/xlink" width="435.492813pt" height="296.168094pt" viewBox="0 0 435.492813 296.168094" xmlns="http://www.w3.org/2000/svg" version="1.1">
 <metadata>
  <rdf:RDF xmlns:dc="http://purl.org/dc/elements/1.1/" xmlns:cc="http://creativecommons.org/ns#" xmlns:rdf="http://www.w3.org/1999/02/22-rdf-syntax-ns#">
   <cc:Work>
    <dc:type rdf:resource="http://purl.org/dc/dcmitype/StillImage"/>
    <dc:date>2026-05-09T02:26:47.214644</dc:date>
    <dc:format>image/svg+xml</dc:format>
    <dc:creator>
     <cc:Agent>
      <dc:title>Matplotlib v3.10.8, https://matplotlib.org/</dc:title>
     </cc:Agent>
    </dc:creator>
   </cc:Work>
  </rdf:RDF>
 </metadata>
 <defs>
  <style type="text/css">*{stroke-linejoin: round; stroke-linecap: butt}</style>
 </defs>
 <g id="figure_1">
  <g id="patch_1">
   <path d="M 0 296.168094 
L 435.492813 296.168094 
L 435.492813 0 
L 0 0 
z
" style="fill: #ffffff"/>
  </g>
  <g id="axes_1">
   <g id="patch_2">
    <path d="M 42.34125 260.029969 
L 421.78125 260.029969 
L 421.78125 21.637969 
L 42.34125 21.637969 
z
" style="fill: #ffffff"/>
   </g>
   <g id="matplotlib.axis_1">
    <g id="xtick_1">
     <g id="line2d_1">
      <path d="M 42.34125 260.029969 
L 42.34125 21.637969 
" clip-path="url(#p3aea2198eb)" style="fill: none; stroke: #e5e7eb; stroke-width: 0.8; stroke-linecap: square"/>
     </g>
     <g id="line2d_2">
      <defs>
       <path id="m1ff211f60b" d="M 0 0 
L 0 3.5 
" style="stroke: #1f2937; stroke-width: 0.8"/>
      </defs>
      <g>
       <use xlink:href="#m1ff211f60b" x="42.34125" y="260.029969" style="fill: #1f2937; stroke: #1f2937; stroke-width: 0.8"/>
      </g>
     </g>
     <g id="text_1">
      <text style="font-size: 10px; font-family: 'DejaVu Sans'; text-anchor: middle; fill: #1f2937" x="42.34125" y="274.628406" transform="rotate(-0 42.34125 274.628406)">0.0</text>
     </g>
    </g>
    <g id="xtick_2">
     <g id="line2d_3">
      <path d="M 118.22925 260.029969 
L 118.22925 21.637969 
" clip-path="url(#p3aea2198eb)" style="fill: none; stroke: #e5e7eb; stroke-width: 0.8; stroke-linecap: square"/>
     </g>
     <g id="line2d_4">
      <g>
       <use xlink:href="#m1ff211f60b" x="118.22925" y="260.029969" style="fill: #1f2937; stroke: #1f2937; stroke-width: 0.8"/>
      </g>
     </g>
     <g id="text_2">
      <text style="font-size: 10px; font-family: 'DejaVu Sans'; text-anchor: middle; fill: #1f2937" x="118.22925" y="274.628406" transform="rotate(-0 118.22925 274.628406)">0.2</text>
     </g>
    </g>
    <g id="xtick_3">
     <g id="line2d_5">
      <path d="M 194.11725 260.029969 
L 194.11725 21.637969 
" clip-path="url(#p3aea2198eb)" style="fill: none; stroke: #e5e7eb; stroke-width: 0.8; stroke-linecap: square"/>
     </g>
     <g id="line2d_6">
      <g>
       <use xlink:href="#m1ff211f60b" x="194.11725" y="260.029969" style="fill: #1f2937; stroke: #1f2937; stroke-width: 0.8"/>
      </g>
     </g>
     <g id="text_3">
      <text style="font-size: 10px; font-family: 'DejaVu Sans'; text-anchor: middle; fill: #1f2937" x="194.11725" y="274.628406" transform="rotate(-0 194.11725 274.628406)">0.4</text>
     </g>
    </g>
    <g id="xtick_4">
     <g id="line2d_7">
      <path d="M 270.00525 260.029969 
L 270.00525 21.637969 
" clip-path="url(#p3aea2198eb)" style="fill: none; stroke: #e5e7eb; stroke-width: 0.8; stroke-linecap: square"/>
     </g>
     <g id="line2d_8">
      <g>
       <use xlink:href="#m1ff211f60b" x="270.00525" y="260.029969" style="fill: #1f2937; stroke: #1f2937; stroke-width: 0.8"/>
      </g>
     </g>
     <g id="text_4">
      <text style="font-size: 10px; font-family: 'DejaVu Sans'; text-anchor: middle; fill: #1f2937" x="270.00525" y="274.628406" transform="rotate(-0 270.00525 274.628406)">0.6</text>
     </g>
    </g>
    <g id="xtick_5">
     <g id="line2d_9">
      <path d="M 345.89325 260.029969 
L 345.89325 21.637969 
" clip-path="url(#p3aea2198eb)" style="fill: none; stroke: #e5e7eb; stroke-width: 0.8; stroke-linecap: square"/>
     </g>
     <g id="line2d_10">
      <g>
       <use xlink:href="#m1ff211f60b" x="345.89325" y="260.029969" style="fill: #1f2937; stroke: #1f2937; stroke-width: 0.8"/>
      </g>
     </g>
     <g id="text_5">
      <text style="font-size: 10px; font-family: 'DejaVu Sans'; text-anchor: middle; fill: #1f2937" x="345.89325" y="274.628406" transform="rotate(-0 345.89325 274.628406)">0.8</text>
     </g>
    </g>
    <g id="xtick_6">
     <g id="line2d_11">
      <path d="M 421.78125 260.029969 
L 421.78125 21.637969 
" clip-path="url(#p3aea2198eb)" style="fill: none; stroke: #e5e7eb; stroke-width: 0.8; stroke-linecap: square"/>
     </g>
     <g id="line2d_12">
      <g>
       <use xlink:href="#m1ff211f60b" x="421.78125" y="260.029969" style="fill: #1f2937; stroke: #1f2937; stroke-width: 0.8"/>
      </g>
     </g>
     <g id="text_6">
      <text style="font-size: 10px; font-family: 'DejaVu Sans'; text-anchor: middle; fill: #1f2937" x="421.78125" y="274.628406" transform="rotate(-0 421.78125 274.628406)">1.0</text>
     </g>
    </g>
    <g id="text_7">
     <!-- class proportion $p$ -->
     <g style="fill: #1f2937" transform="translate(187.11125 288.308094)">
      <text>
       <tspan x="0" y="-0.40625" style="font-size: 10px; font-family: 'DejaVu Sans'; fill: #1f2937">c</tspan>
       <tspan x="5.498047" y="-0.40625" style="font-size: 10px; font-family: 'DejaVu Sans'; fill: #1f2937">l</tspan>
       <tspan x="8.276367" y="-0.40625" style="font-size: 10px; font-family: 'DejaVu Sans'; fill: #1f2937">a</tspan>
       <tspan x="14.404297" y="-0.40625" style="font-size: 10px; font-family: 'DejaVu Sans'; fill: #1f2937">s</tspan>
       <tspan x="19.614258" y="-0.40625" style="font-size: 10px; font-family: 'DejaVu Sans'; fill: #1f2937">s</tspan>
       <tspan x="24.824219" y="-0.40625" style="font-size: 10px; font-family: 'DejaVu Sans'; fill: #1f2937"> </tspan>
       <tspan x="28.00293" y="-0.40625" style="font-size: 10px; font-family: 'DejaVu Sans'; fill: #1f2937">p</tspan>
       <tspan x="34.350586" y="-0.40625" style="font-size: 10px; font-family: 'DejaVu Sans'; fill: #1f2937">r</tspan>
       <tspan x="38.461914" y="-0.40625" style="font-size: 10px; font-family: 'DejaVu Sans'; fill: #1f2937">o</tspan>
       <tspan x="44.580078" y="-0.40625" style="font-size: 10px; font-family: 'DejaVu Sans'; fill: #1f2937">p</tspan>
       <tspan x="50.927734" y="-0.40625" style="font-size: 10px; font-family: 'DejaVu Sans'; fill: #1f2937">o</tspan>
       <tspan x="57.045898" y="-0.40625" style="font-size: 10px; font-family: 'DejaVu Sans'; fill: #1f2937">r</tspan>
       <tspan x="61.157227" y="-0.40625" style="font-size: 10px; font-family: 'DejaVu Sans'; fill: #1f2937">t</tspan>
       <tspan x="65.078125" y="-0.40625" style="font-size: 10px; font-family: 'DejaVu Sans'; fill: #1f2937">i</tspan>
       <tspan x="67.856445" y="-0.40625" style="font-size: 10px; font-family: 'DejaVu Sans'; fill: #1f2937">o</tspan>
       <tspan x="73.974609" y="-0.40625" style="font-size: 10px; font-family: 'DejaVu Sans'; fill: #1f2937">n</tspan>
       <tspan x="80.3125" y="-0.40625" style="font-size: 10px; font-family: 'DejaVu Sans'; fill: #1f2937"> </tspan>
       <tspan x="83.491211" y="-0.40625" style="font-style: oblique; font-size: 10px; font-family: 'DejaVu Sans'; fill: #1f2937">p</tspan>
      </text>
     </g>
    </g>
   </g>
   <g id="matplotlib.axis_2">
    <g id="ytick_1">
     <g id="line2d_13">
      <path d="M 42.34125 260.029969 
L 421.78125 260.029969 
" clip-path="url(#p3aea2198eb)" style="fill: none; stroke: #e5e7eb; stroke-width: 0.8; stroke-linecap: square"/>
     </g>
     <g id="line2d_14">
      <defs>
       <path id="m10aa81c131" d="M 0 0 
L -3.5 0 
" style="stroke: #1f2937; stroke-width: 0.8"/>
      </defs>
      <g>
       <use xlink:href="#m10aa81c131" x="42.34125" y="260.029969" style="fill: #1f2937; stroke: #1f2937; stroke-width: 0.8"/>
      </g>
     </g>
     <g id="text_8">
      <text style="font-size: 10px; font-family: 'DejaVu Sans'; text-anchor: end; fill: #1f2937" x="35.34125" y="263.829188" transform="rotate(-0 35.34125 263.829188)">0.0</text>
     </g>
    </g>
    <g id="ytick_2">
     <g id="line2d_15">
      <path d="M 42.34125 214.621969 
L 421.78125 214.621969 
" clip-path="url(#p3aea2198eb)" style="fill: none; stroke: #e5e7eb; stroke-width: 0.8; stroke-linecap: square"/>
     </g>
     <g id="line2d_16">
      <g>
       <use xlink:href="#m10aa81c131" x="42.34125" y="214.621969" style="fill: #1f2937; stroke: #1f2937; stroke-width: 0.8"/>
      </g>
     </g>
     <g id="text_9">
      <text style="font-size: 10px; font-family: 'DejaVu Sans'; text-anchor: end; fill: #1f2937" x="35.34125" y="218.421188" transform="rotate(-0 35.34125 218.421188)">0.2</text>
     </g>
    </g>
    <g id="ytick_3">
     <g id="line2d_17">
      <path d="M 42.34125 169.213969 
L 421.78125 169.213969 
" clip-path="url(#p3aea2198eb)" style="fill: none; stroke: #e5e7eb; stroke-width: 0.8; stroke-linecap: square"/>
     </g>
     <g id="line2d_18">
      <g>
       <use xlink:href="#m10aa81c131" x="42.34125" y="169.213969" style="fill: #1f2937; stroke: #1f2937; stroke-width: 0.8"/>
      </g>
     </g>
     <g id="text_10">
      <text style="font-size: 10px; font-family: 'DejaVu Sans'; text-anchor: end; fill: #1f2937" x="35.34125" y="173.013188" transform="rotate(-0 35.34125 173.013188)">0.4</text>
     </g>
    </g>
    <g id="ytick_4">
     <g id="line2d_19">
      <path d="M 42.34125 123.805969 
L 421.78125 123.805969 
" clip-path="url(#p3aea2198eb)" style="fill: none; stroke: #e5e7eb; stroke-width: 0.8; stroke-linecap: square"/>
     </g>
     <g id="line2d_20">
      <g>
       <use xlink:href="#m10aa81c131" x="42.34125" y="123.805969" style="fill: #1f2937; stroke: #1f2937; stroke-width: 0.8"/>
      </g>
     </g>
     <g id="text_11">
      <text style="font-size: 10px; font-family: 'DejaVu Sans'; text-anchor: end; fill: #1f2937" x="35.34125" y="127.605187" transform="rotate(-0 35.34125 127.605187)">0.6</text>
     </g>
    </g>
    <g id="ytick_5">
     <g id="line2d_21">
      <path d="M 42.34125 78.397969 
L 421.78125 78.397969 
" clip-path="url(#p3aea2198eb)" style="fill: none; stroke: #e5e7eb; stroke-width: 0.8; stroke-linecap: square"/>
     </g>
     <g id="line2d_22">
      <g>
       <use xlink:href="#m10aa81c131" x="42.34125" y="78.397969" style="fill: #1f2937; stroke: #1f2937; stroke-width: 0.8"/>
      </g>
     </g>
     <g id="text_12">
      <text style="font-size: 10px; font-family: 'DejaVu Sans'; text-anchor: end; fill: #1f2937" x="35.34125" y="82.197188" transform="rotate(-0 35.34125 82.197188)">0.8</text>
     </g>
    </g>
    <g id="ytick_6">
     <g id="line2d_23">
      <path d="M 42.34125 32.989969 
L 421.78125 32.989969 
" clip-path="url(#p3aea2198eb)" style="fill: none; stroke: #e5e7eb; stroke-width: 0.8; stroke-linecap: square"/>
     </g>
     <g id="line2d_24">
      <g>
       <use xlink:href="#m10aa81c131" x="42.34125" y="32.989969" style="fill: #1f2937; stroke: #1f2937; stroke-width: 0.8"/>
      </g>
     </g>
     <g id="text_13">
      <text style="font-size: 10px; font-family: 'DejaVu Sans'; text-anchor: end; fill: #1f2937" x="35.34125" y="36.789188" transform="rotate(-0 35.34125 36.789188)">1.0</text>
     </g>
    </g>
    <g id="text_14">
     <text style="font-size: 10px; font-family: 'DejaVu Sans'; text-anchor: middle; fill: #1f2937" x="13.358437" y="140.833969" transform="rotate(-90 13.358437 140.833969)">impurity</text>
    </g>
   </g>
   <g id="line2d_25">
    <path d="M 42.72069 259.576343 
L 50.319642 250.682899 
L 57.918594 242.153692 
L 65.517547 233.988722 
L 73.116499 226.187988 
L 80.715451 218.751491 
L 88.314403 211.679231 
L 94.646864 206.063917 
L 100.979324 200.701544 
L 107.311784 195.592114 
L 113.644244 190.735627 
L 119.976704 186.132081 
L 126.309165 181.781477 
L 132.641625 177.683815 
L 138.974085 173.839096 
L 145.306545 170.247318 
L 151.639005 166.908483 
L 157.971466 163.822589 
L 164.303926 160.989638 
L 170.636386 158.409629 
L 176.968846 156.082562 
L 183.301306 154.008437 
L 189.633767 152.187254 
L 195.966227 150.619013 
L 202.298687 149.303714 
L 208.631147 148.241357 
L 214.963607 147.431943 
L 221.296068 146.87547 
L 227.628528 146.57194 
L 233.960988 146.521351 
L 240.293448 146.723705 
L 246.625908 147.179001 
L 252.958369 147.887238 
L 259.290829 148.848418 
L 265.623289 150.06254 
L 271.955749 151.529604 
L 278.288209 153.24961 
L 284.62067 155.222559 
L 290.95313 157.448449 
L 297.28559 159.927281 
L 303.61805 162.659056 
L 309.95051 165.643772 
L 316.282971 168.881431 
L 322.615431 172.372032 
L 328.947891 176.115574 
L 335.280351 180.112059 
L 341.612811 184.361486 
L 347.945272 188.863855 
L 354.277732 193.619166 
L 360.610192 198.627419 
L 366.942652 203.888615 
L 373.275112 209.402752 
L 379.607573 215.169831 
L 387.206525 222.42421 
L 394.805477 230.042826 
L 402.404429 238.025678 
L 410.003382 246.372766 
L 417.602334 255.084092 
L 421.40181 259.576343 
L 421.40181 259.576343 
" clip-path="url(#p3aea2198eb)" style="fill: none; stroke: #2b6cb0; stroke-width: 2.4; stroke-linecap: square"/>
   </g>
   <g id="line2d_26">
    <path d="M 42.72069 257.439951 
L 43.987182 250.88228 
L 46.520166 240.177878 
L 49.05315 230.90975 
L 51.586134 222.502467 
L 54.119118 214.716973 
L 57.918594 203.927971 
L 61.718071 193.981341 
L 65.517547 184.716638 
L 69.317023 176.027046 
L 73.116499 167.836314 
L 76.915975 160.087289 
L 80.715451 152.73556 
L 85.781419 143.490918 
L 90.847388 134.823373 
L 95.913356 126.680342 
L 100.979324 119.01946 
L 106.045292 111.805927 
L 111.11126 105.010701 
L 116.177228 98.609233 
L 121.243196 92.580546 
L 126.309165 86.906554 
L 131.375133 81.571548 
L 136.441101 76.561798 
L 141.507069 71.865243 
L 146.573037 67.471241 
L 151.639005 63.370377 
L 156.704974 59.554297 
L 161.770942 56.015581 
L 166.83691 52.747633 
L 171.902878 49.744591 
L 176.968846 47.001253 
L 182.034814 44.513016 
L 187.100783 42.275821 
L 192.166751 40.286109 
L 197.232719 38.540785 
L 202.298687 37.037188 
L 207.364655 35.773064 
L 212.430623 34.746543 
L 217.496592 33.956128 
L 222.56256 33.400674 
L 227.628528 33.079382 
L 232.694496 32.991793 
L 237.760464 33.137783 
L 242.826432 33.517559 
L 247.892401 34.131665 
L 252.958369 34.980986 
L 258.024337 36.066753 
L 263.090305 37.390555 
L 268.156273 38.954357 
L 273.222241 40.760512 
L 278.288209 42.811788 
L 283.354178 45.111391 
L 288.420146 47.663002 
L 293.486114 50.470811 
L 298.552082 53.539568 
L 303.61805 56.874631 
L 308.684018 60.482039 
L 313.749987 64.368585 
L 318.815955 68.541912 
L 323.881923 73.010624 
L 328.947891 77.784429 
L 334.013859 82.874301 
L 339.079827 88.292695 
L 344.145796 94.053802 
L 349.211764 100.173886 
L 354.277732 106.671701 
L 359.3437 113.569045 
L 364.409668 120.891492 
L 369.475636 128.669389 
L 374.541605 136.939232 
L 379.607573 145.745647 
L 383.407049 152.73556 
L 387.206525 160.087289 
L 391.006001 167.836314 
L 394.805477 176.027046 
L 398.604953 184.716638 
L 402.404429 193.981341 
L 406.203906 203.927971 
L 410.003382 214.716973 
L 412.536366 222.502467 
L 415.06935 230.90975 
L 417.602334 240.177878 
L 418.868826 245.282403 
L 420.135318 250.88228 
L 421.40181 257.439951 
L 421.40181 257.439951 
" clip-path="url(#p3aea2198eb)" style="fill: none; stroke: #dd6b20; stroke-width: 2.4; stroke-linecap: square"/>
   </g>
   <g id="line2d_27">
    <path d="M 232.06125 260.029969 
L 232.06125 21.637969 
" clip-path="url(#p3aea2198eb)" style="fill: none; stroke-dasharray: 4.8,4.8; stroke-dashoffset: 0; stroke: #6b7280; stroke-width: 1.2"/>
   </g>
   <g id="patch_3">
    <path d="M 42.34125 260.029969 
L 42.34125 21.637969 
" style="fill: none; stroke: #000000; stroke-width: 0.8; stroke-linejoin: miter; stroke-linecap: square"/>
   </g>
   <g id="patch_4">
    <path d="M 42.34125 260.029969 
L 421.78125 260.029969 
" style="fill: none; stroke: #000000; stroke-width: 0.8; stroke-linejoin: miter; stroke-linecap: square"/>
   </g>
   <g id="PathCollection_1">
    <defs>
     <path id="me2c87045df" d="M 0 3.708099 
C 0.983399 3.708099 1.926654 3.317391 2.622022 2.622022 
C 3.317391 1.926654 3.708099 0.983399 3.708099 0 
C 3.708099 -0.983399 3.317391 -1.926654 2.622022 -2.622022 
C 1.926654 -3.317391 0.983399 -3.708099 0 -3.708099 
C -0.983399 -3.708099 -1.926654 -3.317391 -2.622022 -2.622022 
C -3.317391 -1.926654 -3.708099 -0.983399 -3.708099 0 
C -3.708099 0.983399 -3.317391 1.926654 -2.622022 2.622022 
C -1.926654 3.317391 -0.983399 3.708099 0 3.708099 
z
" style="stroke: #2f855a"/>
    </defs>
    <g clip-path="url(#p3aea2198eb)">
     <use xlink:href="#me2c87045df" x="42.34125" y="260.029969" style="fill: #2f855a; stroke: #2f855a"/>
     <use xlink:href="#me2c87045df" x="421.78125" y="260.029969" style="fill: #2f855a; stroke: #2f855a"/>
    </g>
   </g>
   <g id="text_15">
    <text style="font-size: 11px; font-family: 'DejaVu Sans'; text-anchor: start; fill: #2f855a" x="65.10765" y="232.785169" transform="rotate(-0 65.10765 232.785169)">pure</text>
   </g>
   <g id="text_16">
    <text style="font-size: 11px; font-family: 'DejaVu Sans'; text-anchor: start; fill: #2f855a" x="345.89325" y="232.785169" transform="rotate(-0 345.89325 232.785169)">pure</text>
   </g>
   <g id="text_17">
    <text style="font-size: 11px; font-family: 'DejaVu Sans'; text-anchor: start; fill: #6b7280" x="243.44445" y="48.882769" transform="rotate(-0 243.44445 48.882769)">mixed</text>
   </g>
   <g id="text_18">
    <text style="font-size: 13px; font-family: 'DejaVu Sans'; text-anchor: middle; fill: #1f2937" x="232.06125" y="15.637969" transform="rotate(-0 232.06125 15.637969)">Impurity is largest when a node is mixed</text>
   </g>
   <g id="legend_1">
    <g id="patch_5">
     <path d="M 343.932813 58.994219 
L 414.78125 58.994219 
Q 416.78125 58.994219 416.78125 56.994219 
L 416.78125 28.637969 
Q 416.78125 26.637969 414.78125 26.637969 
L 343.932813 26.637969 
Q 341.932813 26.637969 341.932813 28.637969 
L 341.932813 56.994219 
Q 341.932813 58.994219 343.932813 58.994219 
z
" style="fill: #ffffff; opacity: 0.8; stroke: #e5e7eb; stroke-linejoin: miter"/>
    </g>
    <g id="line2d_28">
     <path d="M 345.932813 34.736406 
L 355.932813 34.736406 
L 365.932813 34.736406 
" style="fill: none; stroke: #2b6cb0; stroke-width: 2.4; stroke-linecap: square"/>
    </g>
    <g id="text_19">
     <text style="font-size: 10px; font-family: 'DejaVu Sans'; text-anchor: start" x="373.932813" y="38.236406" transform="rotate(-0 373.932813 38.236406)">Gini</text>
    </g>
    <g id="line2d_29">
     <path d="M 345.932813 49.414531 
L 355.932813 49.414531 
L 365.932813 49.414531 
" style="fill: none; stroke: #dd6b20; stroke-width: 2.4; stroke-linecap: square"/>
    </g>
    <g id="text_20">
     <text style="font-size: 10px; font-family: 'DejaVu Sans'; text-anchor: start" x="373.932813" y="52.914531" transform="rotate(-0 373.932813 52.914531)">Entropy</text>
    </g>
   </g>
  </g>
 </g>
 <defs>
  <clipPath id="p3aea2198eb">
   <rect x="42.34125" y="21.637969" width="379.44" height="238.392"/>
  </clipPath>
 </defs>
</svg>
