<?xml version="1.0" encoding="utf-8" standalone="no"?>
<!DOCTYPE svg PUBLIC "-//W3C//DTD SVG 1.1//EN"
  "http://www.w3.org/Graphics/SVG/1.1/DTD/svg11.dtd">
<svg xmlns:xlink="http://www.w3.org/1999/xlink" width="673.92pt" height="414.72pt" viewBox="0 0 673.92 414.72" xmlns="http://www.w3.org/2000/svg" version="1.1">
 <metadata>
  <rdf:RDF xmlns:dc="http://purl.org/dc/elements/1.1/" xmlns:cc="http://creativecommons.org/ns#" xmlns:rdf="http://www.w3.org/1999/02/22-rdf-syntax-ns#">
   <cc:Work>
    <dc:type rdf:resource="http://purl.org/dc/dcmitype/StillImage"/>
    <dc:date>2026-04-01T14:03:14.475869</dc:date>
    <dc:format>image/svg+xml</dc:format>
    <dc:creator>
     <cc:Agent>
      <dc:title>Matplotlib v3.10.6, https://matplotlib.org/</dc:title>
     </cc:Agent>
    </dc:creator>
   </cc:Work>
  </rdf:RDF>
 </metadata>
 <defs>
  <style type="text/css">*{stroke-linejoin: round; stroke-linecap: butt}</style>
 </defs>
 <g id="figure_1">
  <g id="patch_1">
   <path d="M 0 414.72 
L 673.92 414.72 
L 673.92 0 
L 0 0 
z
" style="fill: #ffffff"/>
  </g>
  <g id="axes_1">
   <g id="patch_2">
    <path d="M 72.561187 365.76 
Q 338.759656 365.76 602.274843 365.76 
" clip-path="url(#p4f318e5079)" style="fill: none; stroke: #404040; stroke-width: 2.4; stroke-linecap: round"/>
    <path d="M 595.874843 362.56 
L 602.274843 365.76 
L 595.874843 368.96 
z
" clip-path="url(#p4f318e5079)" style="fill: #404040; stroke: #404040; stroke-width: 2.4; stroke-linecap: round"/>
   </g>
   <g id="patch_3">
    <path d="M 70.56 363.761697 
Q 70.56 210.962938 70.56 60.847461 
" clip-path="url(#p4f318e5079)" style="fill: none; stroke: #404040; stroke-width: 2.4; stroke-linecap: round"/>
    <path d="M 67.36 67.247461 
L 70.56 60.847461 
L 73.76 67.247461 
z
" clip-path="url(#p4f318e5079)" style="fill: #404040; stroke: #404040; stroke-width: 2.4; stroke-linecap: round"/>
   </g>
   <g id="patch_4">
    <path d="M 148.90894 323.910287 
Q 315.361443 207.35899 478.150587 93.372804 
" clip-path="url(#p4f318e5079)" style="fill: none; stroke: #2166ac; stroke-width: 4; stroke-linecap: round"/>
    <path d="M 470.187817 94.553607 
L 478.150587 93.372804 
L 474.317567 100.451502 
z
" clip-path="url(#p4f318e5079)" style="fill: #2166ac; stroke: #2166ac; stroke-width: 4; stroke-linecap: round"/>
   </g>
   <g id="line2d_1">
    <path d="M 147.270001 325.057885 
L 483.449999 89.662115 
" clip-path="url(#p4f318e5079)" style="fill: none; stroke: #2166ac; stroke-width: 4; stroke-linecap: square"/>
   </g>
   <g id="line2d_2">
    <path d="M 394.56 182.16 
L 380.344125 161.857626 
" clip-path="url(#p4f318e5079)" style="fill: none; stroke-dasharray: 12.6,10.8; stroke-dashoffset: 0; stroke: #8c8c8c; stroke-width: 1.8"/>
   </g>
   <g id="text_1">
    <!-- $x_1$ -->
    <g style="fill: #1f1f1f" transform="translate(616.32 373.667187)">
     <text>
      <tspan x="0" y="-0.890625" style="font-style: oblique; font-size: 13px; font-family: 'DejaVu Sans'; fill: #1f1f1f">x</tspan>
      <tspan x="7.693359" y="1.242188" style="font-size: 9.1px; font-family: 'DejaVu Sans'; fill: #1f1f1f">1</tspan>
     </text>
    </g>
   </g>
   <g id="text_2">
    <!-- $x_2$ -->
    <g style="fill: #1f1f1f" transform="translate(60.48 52.547188)">
     <text>
      <tspan x="0" y="-0.890625" style="font-style: oblique; font-size: 13px; font-family: 'DejaVu Sans'; fill: #1f1f1f">x</tspan>
      <tspan x="7.693359" y="1.242188" style="font-size: 9.1px; font-family: 'DejaVu Sans'; fill: #1f1f1f">2</tspan>
     </text>
    </g>
   </g>
   <g id="text_3">
    <!-- direction $w$ -->
    <g style="fill: #1f1f1f" transform="translate(473.76 142.547188)">
     <text>
      <tspan x="0" y="-0.125" style="font-size: 13px; font-family: 'DejaVu Sans'; fill: #1f1f1f">d</tspan>
      <tspan x="8.251953" y="-0.125" style="font-size: 13px; font-family: 'DejaVu Sans'; fill: #1f1f1f">i</tspan>
      <tspan x="11.86377" y="-0.125" style="font-size: 13px; font-family: 'DejaVu Sans'; fill: #1f1f1f">r</tspan>
      <tspan x="17.208496" y="-0.125" style="font-size: 13px; font-family: 'DejaVu Sans'; fill: #1f1f1f">e</tspan>
      <tspan x="25.206543" y="-0.125" style="font-size: 13px; font-family: 'DejaVu Sans'; fill: #1f1f1f">c</tspan>
      <tspan x="32.354004" y="-0.125" style="font-size: 13px; font-family: 'DejaVu Sans'; fill: #1f1f1f">t</tspan>
      <tspan x="37.451172" y="-0.125" style="font-size: 13px; font-family: 'DejaVu Sans'; fill: #1f1f1f">i</tspan>
      <tspan x="41.062988" y="-0.125" style="font-size: 13px; font-family: 'DejaVu Sans'; fill: #1f1f1f">o</tspan>
      <tspan x="49.016602" y="-0.125" style="font-size: 13px; font-family: 'DejaVu Sans'; fill: #1f1f1f">n</tspan>
      <tspan x="57.255859" y="-0.125" style="font-size: 13px; font-family: 'DejaVu Sans'; fill: #1f1f1f"> </tspan>
      <tspan x="61.388184" y="-0.125" style="font-style: oblique; font-size: 13px; font-family: 'DejaVu Sans'; fill: #1f1f1f">w</tspan>
     </text>
    </g>
   </g>
   <g id="PathCollection_1">
    <defs>
     <path id="md74dbe13db" d="M 0 3 
C 0.795609 3 1.55874 2.683901 2.12132 2.12132 
C 2.683901 1.55874 3 0.795609 3 0 
C 3 -0.795609 2.683901 -1.55874 2.12132 -2.12132 
C 1.55874 -2.683901 0.795609 -3 0 -3 
C -0.795609 -3 -1.55874 -2.683901 -2.12132 -2.12132 
C -2.683901 -1.55874 -3 -0.795609 -3 0 
C -3 0.795609 -2.683901 1.55874 -2.12132 2.12132 
C -1.55874 2.683901 -0.795609 3 0 3 
z
" style="stroke: #1f4e79"/>
    </defs>
    <g clip-path="url(#p4f318e5079)">
     <use xlink:href="#md74dbe13db" x="185.76" y="286.56" style="fill: #1f4e79; stroke: #1f4e79"/>
     <use xlink:href="#md74dbe13db" x="236.16" y="261.36" style="fill: #1f4e79; stroke: #1f4e79"/>
     <use xlink:href="#md74dbe13db" x="264.96" y="243.36" style="fill: #1f4e79; stroke: #1f4e79"/>
     <use xlink:href="#md74dbe13db" x="329.76" y="214.56" style="fill: #1f4e79; stroke: #1f4e79"/>
     <use xlink:href="#md74dbe13db" x="394.56" y="182.16" style="fill: #1f4e79; stroke: #1f4e79"/>
     <use xlink:href="#md74dbe13db" x="444.96" y="156.96" style="fill: #1f4e79; stroke: #1f4e79"/>
    </g>
   </g>
   <g id="patch_5">
    <path d="M 417.926576 164.96962 
Q 400.133176 163.496248 383.453996 162.115137 
" style="fill: none; stroke: #7f7f7f; stroke-linecap: round"/>
    <path d="M 388.421702 165.135384 
L 383.453996 162.115137 
L 388.850817 159.95312 
" style="fill: none; stroke: #7f7f7f; stroke-linecap: round"/>
   </g>
   <g id="text_4">
    <!-- $z_i = w^\top x_i$ -->
    <g style="fill: #1f1f1f" transform="translate(421.92 171.881406)">
     <text>
      <tspan x="0" y="-0.646875" style="font-style: oblique; font-size: 13px; font-family: 'DejaVu Sans'; fill: #1f1f1f">z</tspan>
      <tspan x="25.665479" y="-0.646875" style="font-style: oblique; font-size: 13px; font-family: 'DejaVu Sans'; fill: #1f1f1f">w</tspan>
      <tspan x="48.706624" y="-0.646875" style="font-style: oblique; font-size: 13px; font-family: 'DejaVu Sans'; fill: #1f1f1f">x</tspan>
      <tspan x="6.82373" y="1.485937" style="font-style: oblique; font-size: 9.1px; font-family: 'DejaVu Sans'; fill: #1f1f1f">i</tspan>
      <tspan x="56.399984" y="1.485937" style="font-style: oblique; font-size: 9.1px; font-family: 'DejaVu Sans'; fill: #1f1f1f">i</tspan>
      <tspan x="12.240186" y="-0.646875" style="font-size: 13px; font-family: 'DejaVu Sans'; fill: #1f1f1f">=</tspan>
      <tspan x="38.651302" y="-5.623438" style="font-size: 9.1px; font-family: 'DejaVu Sans'; fill: #1f1f1f">⊤</tspan>
     </text>
    </g>
   </g>
   <g id="text_5">
    <text style="font-size: 11px; font-family: 'DejaVu Sans'; text-anchor: start; fill: #1f1f1f" x="182.16" y="80.795312" transform="rotate(-0 182.16 80.795312)">many points on a line</text>
   </g>
   <g id="text_6">
    <!-- $x_i$ -->
    <g style="fill: #1f4e79" transform="translate(401.76 184.912344)">
     <text>
      <tspan x="0" y="-0.984375" style="font-style: oblique; font-size: 11px; font-family: 'DejaVu Sans'; fill: #1f4e79">x</tspan>
      <tspan x="6.509766" y="0.820312" style="font-style: oblique; font-size: 7.7px; font-family: 'DejaVu Sans'; fill: #1f4e79">i</tspan>
     </text>
    </g>
   </g>
   <g id="PathCollection_2">
    <defs>
     <path id="m222f3b8fe7" d="M 0 4.1833 
C 1.109424 4.1833 2.173559 3.742521 2.95804 2.95804 
C 3.742521 2.173559 4.1833 1.109424 4.1833 0 
C 4.1833 -1.109424 3.742521 -2.173559 2.95804 -2.95804 
C 2.173559 -3.742521 1.109424 -4.1833 0 -4.1833 
C -1.109424 -4.1833 -2.173559 -3.742521 -2.95804 -2.95804 
C -3.742521 -2.173559 -4.1833 -1.109424 -4.1833 0 
C -4.1833 1.109424 -3.742521 2.173559 -2.95804 2.95804 
C -2.173559 3.742521 -1.109424 4.1833 0 4.1833 
z
" style="stroke: #1f4e79"/>
    </defs>
    <g clip-path="url(#p4f318e5079)">
     <use xlink:href="#m222f3b8fe7" x="394.56" y="182.16" style="fill: #1f4e79; stroke: #1f4e79"/>
    </g>
   </g>
   <g id="PathCollection_3">
    <defs>
     <path id="m477e0007f6" d="M 0 3.872983 
C 1.027127 3.872983 2.012324 3.464901 2.738613 2.738613 
C 3.464901 2.012324 3.872983 1.027127 3.872983 0 
C 3.872983 -1.027127 3.464901 -2.012324 2.738613 -2.738613 
C 2.012324 -3.464901 1.027127 -3.872983 0 -3.872983 
C -1.027127 -3.872983 -2.012324 -3.464901 -2.738613 -2.738613 
C -3.464901 -2.012324 -3.872983 -1.027127 -3.872983 0 
C -3.872983 1.027127 -3.464901 2.012324 -2.738613 2.738613 
C -2.012324 3.464901 -1.027127 3.872983 0 3.872983 
z
" style="stroke: #d95f02"/>
    </defs>
    <g clip-path="url(#p4f318e5079)">
     <use xlink:href="#m477e0007f6" x="380.344125" y="161.857626" style="fill: #d95f02; stroke: #d95f02"/>
    </g>
   </g>
  </g>
 </g>
 <defs>
  <clipPath id="p4f318e5079">
   <rect x="5.76" y="5.76" width="662.4" height="403.2"/>
  </clipPath>
 </defs>
</svg>
